<svg id="Group_234" data-name="Group 234" xmlns="http://www.w3.org/2000/svg" width="53.7" height="53.7" viewBox="0 0 53.7 53.7">
  <g id="Group_232" data-name="Group 232">
    <path id="Path_1209" data-name="Path 1209" d="M462.644,7.33a26.85,26.85,0,1,0,26.85,26.85A26.88,26.88,0,0,0,462.644,7.33Zm0,52.3A25.455,25.455,0,1,1,488.1,34.18,25.484,25.484,0,0,1,462.644,59.635Z" transform="translate(-435.794 -7.33)"/>
    <path id="Path_1210" data-name="Path 1210" d="M488.18,30.011,476.9,31.685a15.483,15.483,0,0,0-29.556,4.38l-11.228,1.667.119.823L488.3,30.827Zm-39.989,5.928a14.658,14.658,0,0,1,27.861-4.129Z" transform="translate(-435.892 -11.894)"/>
    <path id="Path_1211" data-name="Path 1211" d="M489.661,43.638l-51.928,7.748-.244.042.126.816,11.361-1.695A15.439,15.439,0,0,0,463.132,59.8a14.706,14.706,0,0,0,2.28-.174,15.458,15.458,0,0,0,13.146-13.495L489.536,44.5l.244-.035ZM465.294,58.813a14.65,14.65,0,0,1-15.468-8.39l27.882-4.163A14.639,14.639,0,0,1,465.294,58.813Z" transform="translate(-436.307 -18.317)"/>
  </g>
  <g id="Group_233" data-name="Group 233" transform="translate(12.917 4.668)">
    <path id="Path_1212" data-name="Path 1212" d="M455.24,20.341a1.159,1.159,0,0,1-.176-.66.543.543,0,0,1,.266-.451.5.5,0,0,1,.443-.05.875.875,0,0,1,.515.84.528.528,0,0,1-.24.381l-.208.14.241.4.232-.126a.71.71,0,0,1,.558-.067.8.8,0,0,1,.467.377.749.749,0,0,1,.113.567.7.7,0,0,1-.342.446.741.741,0,0,1-.664.073,1.213,1.213,0,0,1-.6-.519l-.548.524a1.666,1.666,0,0,0,.6.56,1.423,1.423,0,0,0,.756.169,1.687,1.687,0,0,0,.794-.259,1.777,1.777,0,0,0,.586-.55,1.232,1.232,0,0,0,.017-1.358,1.211,1.211,0,0,0-.548-.5,1.162,1.162,0,0,0-.736-.059l-.006-.011a.956.956,0,0,0,.169-.554,1.15,1.15,0,0,0-.18-.6,1.229,1.229,0,0,0-.469-.46,1.1,1.1,0,0,0-.619-.131,1.544,1.544,0,0,0-1.181.75,1.312,1.312,0,0,0-.164.691,1.586,1.586,0,0,0,.219.736Z" transform="translate(-454.316 -15.367)"/>
    <path id="Path_1213" data-name="Path 1213" d="M460.616,19.742a1.825,1.825,0,0,0,.855.557,1.61,1.61,0,0,0,1.724-.637,1.837,1.837,0,0,0,.287-.98,3.311,3.311,0,0,0-.229-1.236,3.348,3.348,0,0,0-.631-1.091,1.829,1.829,0,0,0-.856-.56,1.607,1.607,0,0,0-1.724.637,1.823,1.823,0,0,0-.287.979,3.336,3.336,0,0,0,.232,1.242A3.292,3.292,0,0,0,460.616,19.742Zm-.1-2.6a.8.8,0,0,1,1.348-.5,2.431,2.431,0,0,1,.673,1.061,2.431,2.431,0,0,1,.179,1.245.8.8,0,0,1-1.347.5,2.438,2.438,0,0,1-.674-1.062A2.435,2.435,0,0,1,460.518,17.145Z" transform="translate(-455.961 -14.542)"/>
    <path id="Path_1214" data-name="Path 1214" d="M470.07,18.47a2.178,2.178,0,0,0,1.586-.693,2.252,2.252,0,0,0,.446-1.68,2.265,2.265,0,0,0-.681-1.6,2.164,2.164,0,0,0-1.663-.462l-1.539.11.318,4.437Zm-.278-3.785a1.336,1.336,0,0,1,1.08.332,1.691,1.691,0,0,1,.446,1.137,1.681,1.681,0,0,1-.279,1.187,1.348,1.348,0,0,1-1.023.479l-.757.054-.225-3.135Z" transform="translate(-458.523 -14.023)"/>
    <path id="Path_1215" data-name="Path 1215" d="M475.218,17.513l1.693.214.177,1,.8.1-.9-4.6-.971-.123L474,18.339l.791.1Zm1.2-2.675h.012l.4,2.264-1.389-.176Z" transform="translate(-460.272 -14.05)"/>
    <path id="Path_1216" data-name="Path 1216" d="M480.895,19.334l.751.227.467-1.544,2.16-2.309-.811-.246-1.5,1.741-.012,0-.322-2.293-.792-.24.53,3.123Z" transform="translate(-462.34 -14.218)"/>
    <path id="Path_1217" data-name="Path 1217" d="M461.019,68.213a1.62,1.62,0,0,0,.107-1.079,1.7,1.7,0,0,0-.594-.928,1.9,1.9,0,0,0-.955-.438,1.79,1.79,0,0,0-1.009.16,2.6,2.6,0,0,0-.913.73,2.444,2.444,0,0,0-.528,1.043,1.853,1.853,0,0,0,.068,1.047,2.087,2.087,0,0,0,.654.891,1.984,1.984,0,0,0,.971.455,1.77,1.77,0,0,0,1-.144,2.49,2.49,0,0,0,.9-.717c.039-.047.1-.121.169-.222l-1.9-1.564-.328.4,1.359,1.119a1.45,1.45,0,0,1-.559.405,1.154,1.154,0,0,1-.628.07,1.341,1.341,0,0,1-1-.87,1.274,1.274,0,0,1-.012-.718,1.907,1.907,0,0,1,.391-.736,2.049,2.049,0,0,1,.634-.532,1.242,1.242,0,0,1,.67-.15,1.071,1.071,0,0,1,.609.255.948.948,0,0,1,.335.55,1.134,1.134,0,0,1-.068.674Z" transform="translate(-455.153 -29.677)"/>
    <path id="Path_1218" data-name="Path 1218" d="M466.387,69.687l-1.115,2.42a.98.98,0,0,1-.494.527.805.805,0,0,1-.676-.034.814.814,0,0,1-.469-.5.96.96,0,0,1,.069-.711l1.118-2.426-.658-.3-1.127,2.446a1.648,1.648,0,0,0-.166.822,1.324,1.324,0,0,0,.278.718,1.8,1.8,0,0,0,.69.525,1.774,1.774,0,0,0,.841.181,1.318,1.318,0,0,0,.727-.255,1.657,1.657,0,0,0,.518-.66l1.127-2.446Z" transform="translate(-456.903 -30.557)"/>
    <path id="Path_1219" data-name="Path 1219" d="M470.038,71.065l-2.158,3.747.72.149.46-.822,1.543.319.091.935.726.15-.5-4.3Zm-.729,2.552,1.045-1.854.011,0,.209,2.113Z" transform="translate(-458.42 -31.284)"/>
    <path id="Path_1220" data-name="Path 1220" d="M477.586,73.528a1.06,1.06,0,0,0,.218-.69,1.144,1.144,0,0,0-.72-1.06,1.8,1.8,0,0,0-.763-.132l-1.679.048.117,4.1.724-.021-.048-1.661.851-.024.818,1.64.781-.022-.92-1.77A1.138,1.138,0,0,0,477.586,73.528Zm-1.262.018-.9.026-.038-1.326.9-.026a.842.842,0,0,1,.566.167.61.61,0,0,1,.228.483.593.593,0,0,1-.2.478A.84.84,0,0,1,476.324,73.546Z" transform="translate(-460.467 -31.46)"/>
    <path id="Path_1221" data-name="Path 1221" d="M481.183,70.968l-.238,4.317.71-.192.04-.941,1.521-.411.5.794.716-.194-2.379-3.61Zm.5,2.606.1-2.127.011,0,1.138,1.792Z" transform="translate(-462.374 -31.184)"/>
    <path id="Path_1222" data-name="Path 1222" d="M487.056,68.117l1.559,2.824-.01.006-2.948-2.057-.806.445,1.985,3.594.6-.333-1.554-2.814.01-.005,2.948,2.044.806-.445-1.984-3.595Z" transform="translate(-463.556 -30.291)"/>
    <path id="Path_1223" data-name="Path 1223" d="M491.989,65.058l-.419-.472-2.251,2,.419.472.853-.758,2.308,2.6.545-.485-2.309-2.6Z" transform="translate(-464.908 -29.324)"/>
    <path id="Path_1224" data-name="Path 1224" d="M496.146,64.78l-.986-.74.953-1.269-.44-.33-.952,1.269-.894-.671,1.092-1.454-.482-.361-1.512,2.014,3.283,2.465,1.548-2.061-.482-.362Z" transform="translate(-465.999 -28.306)"/>
    <path id="Path_1225" data-name="Path 1225" d="M500.291,59.023l-.543-.26-.811,1.692-1.113-.533.685-1.431-.5-.238-.686,1.431L496.32,59.2l.786-1.64-.543-.26-1.089,2.272,3.7,1.774Z" transform="translate(-466.77 -27.119)"/>
    <path id="Path_1226" data-name="Path 1226" d="M454.914,47.736a1.541,1.541,0,0,0,.684.545,1.729,1.729,0,0,0,.916.1,1.655,1.655,0,0,0,.826-.345,1.484,1.484,0,0,0,.474-.7,2.084,2.084,0,0,0,.063-.958c-.008-.051-.022-.126-.043-.227l-2.029.3.061.425,1.452-.212a1.213,1.213,0,0,1-.063.573.962.962,0,0,1-.308.425,1.114,1.114,0,0,1-1.1.13,1.063,1.063,0,0,1-.451-.395,1.589,1.589,0,0,1-.234-.653,1.69,1.69,0,0,1,.026-.689,1.027,1.027,0,0,1,.283-.5.889.889,0,0,1,.5-.234.8.8,0,0,1,.527.1.94.94,0,0,1,.378.421l.535-.215a1.349,1.349,0,0,0-.6-.67,1.42,1.42,0,0,0-.905-.153,1.589,1.589,0,0,0-.806.345,1.5,1.5,0,0,0-.467.712,2.147,2.147,0,0,0-.061.971A2.034,2.034,0,0,0,454.914,47.736Z" transform="translate(-454.383 -23.331)"/>
    <path id="Path_1227" data-name="Path 1227" d="M460.354,46.939a1.5,1.5,0,0,0,.676.545,1.859,1.859,0,0,0,1.753-.256,1.5,1.5,0,0,0,.494-.716A2.3,2.3,0,0,0,463,44.624a1.507,1.507,0,0,0-.674-.543,1.871,1.871,0,0,0-1.757.257,1.5,1.5,0,0,0-.491.713,2.3,2.3,0,0,0,.276,1.889Zm.287-1.695a1,1,0,0,1,.85-.741,1.017,1.017,0,0,1,.584.076,1.035,1.035,0,0,1,.437.392,1.811,1.811,0,0,1,.2,1.347,1.035,1.035,0,0,1-.308.5,1.033,1.033,0,0,1-1.564-.227,1.81,1.81,0,0,1-.2-1.347Z" transform="translate(-456.031 -23.084)"/>
    <path id="Path_1228" data-name="Path 1228" d="M465.832,46.14a1.5,1.5,0,0,0,.676.545,1.863,1.863,0,0,0,1.753-.255,1.5,1.5,0,0,0,.493-.716,2.3,2.3,0,0,0-.275-1.888,1.5,1.5,0,0,0-.674-.543,1.869,1.869,0,0,0-1.757.256,1.514,1.514,0,0,0-.491.713,2.294,2.294,0,0,0,.275,1.888Zm.287-1.695a1.028,1.028,0,0,1,.31-.5,1.017,1.017,0,0,1,.54-.24,1,1,0,0,1,.584.076,1.029,1.029,0,0,1,.438.392,1.813,1.813,0,0,1,.2,1.347,1.032,1.032,0,0,1-.308.5,1.01,1.01,0,0,1-.538.239,1,1,0,0,1-1.027-.467,1.618,1.618,0,0,1-.229-.652A1.638,1.638,0,0,1,466.119,44.445Z" transform="translate(-457.689 -22.842)"/>
    <path id="Path_1229" data-name="Path 1229" d="M472.453,46a1.674,1.674,0,0,0,1.177-.62,2.062,2.062,0,0,0-.365-2.505,1.667,1.667,0,0,0-1.3-.262l-1.175.172.494,3.386Zm-.426-2.889a1.032,1.032,0,0,1,.847.193,1.576,1.576,0,0,1,.259,1.775,1.032,1.032,0,0,1-.757.425l-.578.084-.349-2.393Z" transform="translate(-459.301 -22.665)"/>
    <path id="Path_1230" data-name="Path 1230" d="M479.827,44.97l-.075-.516-1.332.194L478,41.779l-.6.087.494,3.386Z" transform="translate(-461.302 -22.422)"/>
    <path id="Path_1231" data-name="Path 1231" d="M481.287,44.127a1.1,1.1,0,0,0,.52.375,1.65,1.65,0,0,0,1.39-.2,1.1,1.1,0,0,0,.392-.508,1.38,1.38,0,0,0,.062-.7l-.324-2.221-.6.088.32,2.2a.817.817,0,0,1-.107.593.757.757,0,0,1-1.041.146.8.8,0,0,1-.275-.528l-.321-2.2-.6.086.324,2.221A1.377,1.377,0,0,0,481.287,44.127Z" transform="translate(-462.301 -22.148)"/>
    <path id="Path_1232" data-name="Path 1232" d="M485.95,43.228a1.454,1.454,0,0,0,.657.538,1.68,1.68,0,0,0,.9.091,1.6,1.6,0,0,0,.709-.276,1.43,1.43,0,0,0,.464-.563,1.778,1.778,0,0,0,.157-.779l-.578-.018a1.222,1.222,0,0,1-.221.759.889.889,0,0,1-.607.357.926.926,0,0,1-.8-.229,1.474,1.474,0,0,1-.415-.891,1.572,1.572,0,0,1,.114-.973.805.805,0,0,1,.63-.443.724.724,0,0,1,.565.144,1.111,1.111,0,0,1,.368.573l.537-.2a1.5,1.5,0,0,0-.588-.837,1.321,1.321,0,0,0-.958-.2,1.492,1.492,0,0,0-.78.338,1.447,1.447,0,0,0-.439.7,2.272,2.272,0,0,0-.047.98A2.154,2.154,0,0,0,485.95,43.228Z" transform="translate(-463.777 -21.965)"/>
    <path id="Path_1233" data-name="Path 1233" d="M491.663,43.127l-.171-1.175.288-.466,1.1,1.464.693-.1-1.462-1.869.921-1.51-.712.1-.938,1.6h0l-.208-1.428-.6.087.494,3.386Z" transform="translate(-465.287 -21.724)"/>
  </g>
</svg>
