<svg xmlns="http://www.w3.org/2000/svg" width="48.724" height="54.295" viewBox="0 0 48.724 54.295">
  <g id="Group_288" data-name="Group 288" transform="translate(-62.85 -9.2)">
    <path id="Path_1289" data-name="Path 1289" d="M52.224,40.117V18.906a5.3,5.3,0,0,0-2.651-4.587L31.014,3.714a5.3,5.3,0,0,0-5.3,0L7.151,14.319A5.3,5.3,0,0,0,4.5,18.906V40.117A5.3,5.3,0,0,0,7.151,44.7L25.711,55.309a5.3,5.3,0,0,0,5.3,0L49.573,44.7a5.3,5.3,0,0,0,2.651-4.587Z" transform="translate(58.85 6.758)" fill="none" stroke="#000" stroke-linecap="round" stroke-linejoin="round" stroke-width="1"/>
    <path id="Path_1290" data-name="Path 1290" d="M4.9,10.44,28.051,23.83,51.2,10.44" transform="translate(59.161 12.466)" fill="none" stroke="#000" stroke-linecap="round" stroke-linejoin="round" stroke-width="1"/>
    <path id="Path_1291" data-name="Path 1291" d="M18,44.726V18" transform="translate(69.212 18.269)" fill="none" stroke="#000" stroke-linecap="round" stroke-linejoin="round" stroke-width="1"/>
    <line id="Line_32" data-name="Line 32" x2="22.725" y2="13.467" transform="translate(76.545 15.757)" fill="none" stroke="#171717" stroke-linecap="round" stroke-width="1"/>
    <g id="Group_287" data-name="Group 287" transform="translate(67.897 31.957)">
      <line id="Line_29" data-name="Line 29" x2="11.783" y2="6.733" transform="translate(0.231 0)" fill="none" stroke="#171717" stroke-linecap="round" stroke-width="1"/>
      <line id="Line_30" data-name="Line 30" x2="11.783" y2="6.733" transform="translate(0 4)" fill="none" stroke="#171717" stroke-linecap="round" stroke-width="1"/>
    </g>
  </g>
</svg>
