<svg id="Group_1" data-name="Group 1" xmlns="http://www.w3.org/2000/svg" width="116.5" height="29.114" viewBox="0 0 116.5 29.114">
  <path id="Path_1" data-name="Path 1" d="M1474.359,316.988v.27h8.5v-.288a6.789,6.789,0,0,1-1.408-1.055,15.949,15.949,0,0,1-1.234-1.857l-4.531-8.225c.281-.568.6-1.181,1.014-1.947,1.586-2.9,5.6-2.607,5.838-2.588l.047-3.172c-2.245-.051-3.738.294-5.41,3.462-.554,1.049-1.385,2.695-1.841,3.6l-1.127-2.047-.188-.354c-.065-.131-.1-.213-.115-.233a5.33,5.33,0,0,1-.889-2.822c.132-.554.386-.767,1.131-1.251v-.27h-8.5v.288a6.79,6.79,0,0,1,1.408,1.055,4.957,4.957,0,0,1,.746.969l4.9,8.856c-.312.637-.654,1.313-1.133,2.188-1.585,2.9-5.44,2.609-5.678,2.59l-.047,3.172c2.245.051,3.578-.3,5.251-3.465.607-1.15,1.547-3.017,1.961-3.843l.547.989h0l.886,1.666c.065.132.1.214.116.234a5.328,5.328,0,0,1,.889,2.822C1475.358,316.291,1475.1,316.5,1474.359,316.988Z" transform="translate(-1366.363 -288.364)"/>
  <path id="Path_2" data-name="Path 2" d="M1021.181,293.179a9.9,9.9,0,0,0-1.92,3.207l-.077-.039.192-4.528a48.981,48.981,0,0,1-6.452,1.306v.227a3.054,3.054,0,0,1,1.92,2.727v12.328a3,3,0,0,1-1.882,2.727v.23h8.871v-.23l-.015-.007v0a3.05,3.05,0,0,1-2.445-2.9c0-.048,0-10.816,0-10.816a3.858,3.858,0,0,1,.806-1.4c1.226-1.2,4.005-.8,4.247-.775v-3.22A3.883,3.883,0,0,0,1021.181,293.179Z" transform="translate(-950.138 -282.568)"/>
  <path id="Path_3" data-name="Path 3" d="M640.19,308.92a4.254,4.254,0,0,1-5.262-.1,6.505,6.505,0,0,1-1.9-2.8,12.163,12.163,0,0,1-.71-4.378q0-.266.006-.524l10.248-.129V300.8a8.787,8.787,0,0,0-.807-3.763,6.325,6.325,0,0,0-2.323-2.708,6.2,6.2,0,0,0-3.437-.979,6.828,6.828,0,0,0-4.052,1.267,8.346,8.346,0,0,0-2.784,3.514,12.2,12.2,0,0,0-1,5.012,11.976,11.976,0,0,0,1.056,5.089,8.868,8.868,0,0,0,2.842,3.572,6.526,6.526,0,0,0,3.9,1.287,5.251,5.251,0,0,0,3.091-.9,7.11,7.11,0,0,0,2.112-2.362,22.486,22.486,0,0,0,1.594-3.687l-.208-.083A10.374,10.374,0,0,1,640.19,308.92Zm-7.451-11.233a7.71,7.71,0,0,1,1.171-2.746,2.124,2.124,0,0,1,1.709-1.018,1.834,1.834,0,0,1,1.555.979,7.731,7.731,0,0,1,.941,2.228,10.148,10.148,0,0,1,.322,1.786c.07.807-.458,1.568-1.716,1.568l-4.379.033A14.86,14.86,0,0,1,632.739,297.687Z" transform="translate(-596.399 -283.973)"/>
  <path id="Path_4" data-name="Path 4" d="M837.592,308.92a4.254,4.254,0,0,1-5.262-.1,6.505,6.505,0,0,1-1.9-2.8,12.163,12.163,0,0,1-.71-4.378c0-.177,0-.352.006-.524l10.248-.129V300.8a8.788,8.788,0,0,0-.807-3.763,6.325,6.325,0,0,0-2.323-2.708,6.2,6.2,0,0,0-3.437-.979,6.828,6.828,0,0,0-4.052,1.267,8.346,8.346,0,0,0-2.784,3.514,12.2,12.2,0,0,0-1,5.012,11.976,11.976,0,0,0,1.056,5.089,8.868,8.868,0,0,0,2.842,3.572,6.526,6.526,0,0,0,3.9,1.287,5.251,5.251,0,0,0,3.091-.9,7.108,7.108,0,0,0,2.112-2.362,22.491,22.491,0,0,0,1.594-3.687l-.208-.083A10.376,10.376,0,0,1,837.592,308.92Zm-7.451-11.233a7.707,7.707,0,0,1,1.171-2.746,2.124,2.124,0,0,1,1.709-1.018,1.834,1.834,0,0,1,1.555.979,7.726,7.726,0,0,1,.941,2.228,10.137,10.137,0,0,1,.322,1.786c.07.807-.458,1.568-1.716,1.568l-4.379.033A14.875,14.875,0,0,1,830.141,297.687Z" transform="translate(-777.888 -283.973)"/>
  <path id="Path_5" data-name="Path 5" d="M1306.454,306.053a10.377,10.377,0,0,1-2.365,2.867,4.254,4.254,0,0,1-5.262-.1,6.505,6.505,0,0,1-1.9-2.8,12.162,12.162,0,0,1-.71-4.378q0-.266.006-.524l10.248-.129V300.8a8.789,8.789,0,0,0-.807-3.763,6.326,6.326,0,0,0-2.323-2.708,6.2,6.2,0,0,0-3.437-.979,6.828,6.828,0,0,0-4.052,1.267,8.347,8.347,0,0,0-2.784,3.514,12.2,12.2,0,0,0-1,5.012,11.976,11.976,0,0,0,1.056,5.089,8.868,8.868,0,0,0,2.842,3.572,6.525,6.525,0,0,0,3.9,1.287,5.25,5.25,0,0,0,3.091-.9,7.108,7.108,0,0,0,2.113-2.362,22.487,22.487,0,0,0,1.594-3.687Zm-9.816-8.366a7.71,7.71,0,0,1,1.171-2.746,2.124,2.124,0,0,1,1.709-1.018,1.833,1.833,0,0,1,1.555.979,7.731,7.731,0,0,1,.941,2.228,10.157,10.157,0,0,1,.322,1.786c.07.807-.458,1.568-1.716,1.568l-4.379.033A14.861,14.861,0,0,1,1296.638,297.687Z" transform="translate(-1206.779 -283.973)"/>
  <path id="Path_6" data-name="Path 6" d="M242.451,299.171l-2.15-1.182c.113.068.238.146.223.139a9.4,9.4,0,0,1-2.266-1.7,3.322,3.322,0,0,1-.715-2.164,3.017,3.017,0,0,1,.676-2.145,2.176,2.176,0,0,1,1.642-.715,3.338,3.338,0,0,1,2.492,1.275c.83.882,1.485,2.434,2.361,4.753h.48l-.348-6.608h-5.178a6.087,6.087,0,0,0-2.647.618,5.36,5.36,0,0,0-2.125,1.816,5.024,5.024,0,0,0-.831,2.937,5.3,5.3,0,0,0,1.1,3.517,9.561,9.561,0,0,0,2.686,2.2l2.435,1.314a5.956,5.956,0,0,1,1.835,1.546,3.731,3.731,0,0,1,.676,2.319,3.157,3.157,0,0,1-.7,2.241,2.21,2.21,0,0,1-1.661.734,3.508,3.508,0,0,1-1.816-.5,6.7,6.7,0,0,1-1.874-1.99,34.67,34.67,0,0,1-2.129-4.463h-.479l.386,7.3c.489-.412,3.607-.046,4.659.137a7.859,7.859,0,0,0,1.292.134,6.148,6.148,0,0,0,2.879-.715,5.91,5.91,0,0,0,2.222-1.99,5.11,5.11,0,0,0,.85-2.9,5.546,5.546,0,0,0-1.159-3.478A9.154,9.154,0,0,0,242.451,299.171Z" transform="translate(-234.065 -281.653)"/>
  <path id="Path_7" data-name="Path 7" d="M309.494,378.641a1.244,1.244,0,0,0-.169-.093Z" transform="translate(-303.258 -362.306)"/>
  <path id="Path_8" data-name="Path 8" d="M408.307,202.864V191.886a5.447,5.447,0,0,0-1.444-4.14,4.661,4.661,0,0,0-3.293-1.367,5.1,5.1,0,0,0-3.236,1.156,7.986,7.986,0,0,0-2.311,3V177.061c-1.516.385-6.394,1.284-6.625,1.309v.228a3.226,3.226,0,0,1,2.118,2.85l-.005,21.268a3.333,3.333,0,0,1-1.882,2.882v.231h8.281V205.6a3.265,3.265,0,0,1-1.887-2.735V191.347a5.617,5.617,0,0,1,1.54-1.945,2.921,2.921,0,0,1,1.772-.674,2.1,2.1,0,0,1,1.849.982,5.536,5.536,0,0,1,.655,3.024l-.077,10.13a3.113,3.113,0,0,1-1.887,2.735v.231h8.319V205.6A3.206,3.206,0,0,1,408.307,202.864Z" transform="translate(-378.715 -177.061)"/>
  <path id="Path_9" data-name="Path 9" d="M1179.2,252.2a1.486,1.486,0,0,1-.982.424,1.151,1.151,0,0,1-1.136-.77,6.774,6.774,0,0,1-.327-2.465v-12.98h3.235l.193-.847h-3.5v-5.508h-.27a11.594,11.594,0,0,1-2.369,3.871,11.717,11.717,0,0,1-3.37,2.215v.27a2.6,2.6,0,0,1,1.541,2.332v11.148a5.347,5.347,0,0,0,1.117,3.7,3.548,3.548,0,0,0,2.734,1.232,3.454,3.454,0,0,0,2.465-.905,9.4,9.4,0,0,0,1.887-2.946l-.2-.119A5.559,5.559,0,0,1,1179.2,252.2Z" transform="translate(-1095.162 -225.784)"/>
</svg>

