<svg xmlns="http://www.w3.org/2000/svg" width="58.924" height="29.793" viewBox="0 0 58.924 29.793">
  <g id="Layer_2" data-name="Layer 2" transform="translate(29.462 59.256) rotate(-135)">
    <g id="Group_235" data-name="Group 235" transform="translate(62.733 21.067) rotate(135)">
      <path id="Path_1234" data-name="Path 1234" d="M25.49,9.348l-.053-.291C24.291,3.469,21.411,0,17.929,0H8.1C3.562,0,0,6.541,0,14.9s3.562,14.9,8.1,14.9h9.825c3.575,0,6.574-3.787,7.634-9.66l.053-.271h7.693l.046.271C34.481,26,37.48,29.793,41,29.793h9.819c4.548,0,8.11-6.541,8.11-14.9S55.363,0,50.814,0H41c-3.257,0-6.283,3.622-7.528,9.011l-.06.258M8.1,28.469c-3.721,0-6.866-6.217-6.866-13.572S4.383,1.324,8.1,1.324h6.449L14,1.887C11.381,4.582,9.819,9.448,9.819,14.9S11.381,25.212,14,27.906l.55.563Zm16.174-8.21c-1.02,5.045-3.516,8.3-6.349,8.3-3.727,0-6.872-6.23-6.872-13.612,0-7.448,3.145-13.738,6.872-13.738,2.926,0,5.23,3.84,6.21,7.647l.106.41H17.929c-1.523,0-2.8,2.43-2.8,5.3s1.278,5.3,2.8,5.3h6.429Zm8.958-9.938a28.369,28.369,0,0,0-.344,4.522,31.3,31.3,0,0,0,.258,3.986l.046.371H17.929c-1.152,0-2.2-2.2-2.2-4.635s1.046-4.635,2.2-4.635H33.3ZM41,28.469c-3.721,0-6.866-6.217-6.866-13.572S37.275,1.324,41,1.324h6.449l-.55.563C44.273,4.582,42.71,9.448,42.71,14.9s1.562,10.315,4.184,13.01l.55.563Zm9.819-.013c-3.721,0-6.866-6.21-6.866-13.559S47.093,1.344,50.814,1.344s6.872,6.2,6.872,13.553S54.542,28.456,50.814,28.456Z"/>
    </g>
  </g>
</svg>
